<svg width="52" height="35" viewBox="0 0 52 35" fill="none" xmlns="http://www.w3.org/2000/svg">
<path d="M12.93 14.2503C12.82 14.0403 12.72 13.8302 12.61 13.6102C13.01 13.0402 13.37 12.4402 13.81 11.9102C15.64 9.69023 17.5099 7.50027 19.3199 5.26027C20.5999 3.68027 20.5599 2.02027 19.1999 0.950269C17.7599 -0.179731 16.3 0.0102767 15.03 1.27028C10.47 5.79028 5.91002 10.3203 1.41002 14.9003C-0.129983 16.4703 -0.119973 18.0002 1.42003 19.5502C5.88003 24.0702 10.39 28.5403 14.87 33.0303C16.2 34.3603 17.6799 34.6802 19.2099 33.4802C20.6199 32.3802 20.58 30.7403 19.17 29.0003C17.36 26.7603 15.49 24.5703 13.68 22.3403C13.27 21.8303 12.99 21.2003 12.39 20.2003C13.73 20.2003 14.5199 20.2003 15.3199 20.2003C25.9499 20.2003 36.5799 20.2003 47.2099 20.1903C48.0199 20.1903 48.85 20.1903 49.62 20.0003C51.08 19.6403 52.15 18.5603 51.73 17.1303C51.42 16.0603 50.32 15.1203 49.36 14.4003C48.88 14.0403 47.9299 14.2703 47.1899 14.2703C36.6299 14.2703 26.08 14.2703 15.52 14.2703C14.66 14.2503 13.8 14.2503 12.93 14.2503Z" fill="white"/>
<path d="M12.9302 14.2502C13.8002 14.2502 14.6602 14.2502 15.5302 14.2502C26.0902 14.2502 36.6401 14.2502 47.2001 14.2502C47.9401 14.2502 48.8801 14.0202 49.3701 14.3802C50.3301 15.1002 50.9501 16.0802 50.9501 17.2002C50.9501 18.2002 51.0902 19.6202 49.6302 19.9902C48.8602 20.1802 48.0301 20.1802 47.2201 20.1802C36.5901 20.1902 25.9601 20.1902 15.3301 20.1902C14.5401 20.1902 13.7402 20.1902 12.4002 20.1902C13.0002 21.2002 13.2701 21.8202 13.6901 22.3302C15.5001 24.5702 17.3702 26.7602 19.1802 28.9902C20.5902 30.7302 20.6301 32.3702 19.2201 33.4702C17.6801 34.6702 16.2102 34.3602 14.8802 33.0202C10.3902 28.5302 5.89021 24.0602 1.43021 19.5402C-0.0997918 17.9902 -0.119802 16.4502 1.4202 14.8902C5.9302 10.3102 10.4802 5.79022 15.0402 1.26022C16.3102 0.000219941 17.7701 -0.199787 19.2101 0.940213C20.5701 2.01021 20.6101 3.67021 19.3301 5.25021C17.5201 7.49021 15.6501 9.68023 13.8201 11.9002C13.3801 12.4402 13.0201 13.0302 12.6201 13.6002C12.7201 13.8302 12.8202 14.0402 12.9302 14.2502Z" fill="black"/>
</svg>