<svg width="43" height="44" viewBox="0 0 43 44" fill="none" xmlns="http://www.w3.org/2000/svg">
<path d="M5.09979 23.3002C5.09979 22.9702 5.09979 22.6202 5.09979 22.2802C5.09979 15.7702 5.09979 9.27016 5.09979 2.76016C5.09979 1.46016 5.37983 0.970108 6.13983 0.960108C6.89983 0.950108 7.20978 1.45013 7.20978 2.73013C7.20978 9.24013 7.20978 15.7401 7.20978 22.2501C7.20978 22.6001 7.20978 22.9402 7.20978 23.1602C8.18978 23.6902 9.14987 24.0602 9.92987 24.6702C11.7499 26.0902 12.5199 28.0402 12.1699 30.3102C11.7999 32.6902 10.4098 34.3802 8.12982 35.1602C7.35982 35.4202 7.17977 35.7601 7.19977 36.5001C7.24977 38.4001 7.21979 40.3101 7.21979 42.2101C7.21979 42.9401 7.07987 43.6001 6.17987 43.6101C5.28987 43.6201 5.1098 42.9701 5.1098 42.2401C5.1098 40.2401 5.09981 38.2401 5.11981 36.2401C5.11981 35.7501 5.04982 35.4402 4.49982 35.2602C1.60982 34.2702 0.0297831 32.0501 0.0897831 29.2001C0.149783 26.5101 1.93987 24.3201 4.79987 23.4501C4.86987 23.4101 4.94979 23.3602 5.09979 23.3002ZM10.1699 29.3601C10.1599 27.1201 8.31979 25.3001 6.09979 25.3401C3.89979 25.3801 2.13982 27.1601 2.12982 29.3701C2.11982 31.6401 3.87984 33.4102 6.14984 33.4102C8.42984 33.4102 10.1799 31.6401 10.1699 29.3601Z" fill="white"/>
<path d="M22.4398 21.2601C22.4398 22.5801 22.4398 23.8501 22.4398 25.1101C22.4398 30.6601 22.4398 36.2201 22.4398 41.7701C22.4398 42.0901 22.5399 42.4901 22.3799 42.7001C22.1199 43.0601 21.7199 43.5102 21.3499 43.5502C21.0499 43.5802 20.6199 43.0901 20.3999 42.7301C20.2399 42.4701 20.3398 42.0501 20.3398 41.7001C20.3398 35.2301 20.3398 28.7501 20.3398 22.2801C20.3398 21.9401 20.3398 21.5901 20.3398 21.2501C17.8098 20.5701 16.1099 19.1101 15.4899 16.5901C14.7399 13.5301 16.4599 10.3802 19.4699 9.41015C20.2099 9.17015 20.3699 8.83013 20.3499 8.14013C20.3099 6.24013 20.3298 4.33017 20.3398 2.43017C20.3498 1.42017 20.7099 0.920087 21.4199 0.970087C22.3099 1.03009 22.4398 1.68014 22.4398 2.40014C22.4398 4.40014 22.4198 6.40014 22.4598 8.40014C22.4698 8.69014 22.6899 9.15012 22.9299 9.25012C26.1199 10.6101 27.5798 12.6102 27.4598 15.5402C27.3498 18.2002 25.5698 20.2501 22.4398 21.2601ZM21.3699 11.1602C19.0999 11.1702 17.3499 12.9301 17.3599 15.2101C17.3699 17.4101 19.1398 19.2001 21.3398 19.2201C23.5598 19.2501 25.3899 17.4301 25.3999 15.1901C25.4099 12.9201 23.6399 11.1502 21.3699 11.1602Z" fill="white"/>
<path d="M35.5699 23.34C35.5699 22.93 35.5699 22.5901 35.5699 22.2401C35.5699 15.8301 35.5699 9.42008 35.5699 3.01008C35.5699 2.72008 35.5599 2.44009 35.5799 2.15009C35.6099 1.47009 35.88 0.95004 36.65 0.97004C37.42 0.98004 37.65 1.52002 37.68 2.20002C37.69 2.45002 37.68 2.71003 37.68 2.96003C37.68 9.40003 37.68 15.8401 37.68 22.2901C37.68 22.6301 37.68 22.98 37.68 23.34C40.23 24.03 41.94 25.51 42.55 28.08C43.26 31.1 41.54 34.2101 38.56 35.1801C37.83 35.4201 37.65 35.73 37.67 36.44C37.71 38.41 37.7 40.38 37.68 42.34C37.67 43.26 37.14 43.7701 36.42 43.6101C35.73 43.4501 35.5799 42.9201 35.5799 42.3001C35.5799 40.2701 35.5599 38.24 35.5899 36.21C35.5999 35.69 35.46 35.4301 34.93 35.2501C32.1 34.3001 30.48 32.0201 30.55 29.1601C30.62 26.5101 32.4399 24.28 35.2099 23.46C35.2799 23.42 35.3699 23.39 35.5699 23.34ZM40.64 29.4101C40.65 27.1601 38.85 25.34 36.62 25.34C34.43 25.34 32.63 27.13 32.61 29.32C32.59 31.61 34.3099 33.3801 36.5899 33.4101C38.8399 33.4301 40.63 31.6701 40.64 29.4101Z" fill="white"/>
</svg>