<svg width="154" height="130" viewBox="0 0 154 130" fill="none" xmlns="http://www.w3.org/2000/svg">
<path d="M140.16 81.5602C140.16 81.5602 124.95 85.0502 124.58 56.2502C124.21 27.4502 130.62 11.3802 145.27 7.78022C145.27 7.78022 152.24 6.20014 152.38 8.58014C152.52 10.9601 152.38 9.30023 152.38 9.30023V117.59C152.38 117.59 152.94 122.71 146.8 122.71C140.66 122.71 139.73 119.48 140.01 116.25C140.29 113.02 140.16 81.5602 140.16 81.5602Z" fill="#D34B67"/>
<path d="M146.8 123.91C143.83 123.91 141.64 123.18 140.31 121.73C139.09 120.41 138.6 118.58 138.81 116.14C139.05 113.37 138.98 88.8801 138.96 82.8801C137.24 82.9301 134.26 82.6001 131.34 80.3301C126.21 76.3301 123.52 68.2301 123.37 56.2601C123.18 41.4301 124.75 30.2501 128.18 22.1001C131.71 13.7001 137.36 8.49011 144.98 6.61011C146.33 6.30011 150.8 5.43007 152.67 6.82007C153.23 7.24007 153.56 7.84013 153.59 8.51013C153.62 8.94013 153.64 9.32015 153.63 9.65015V9.66016C153.63 9.83016 153.61 9.98012 153.59 10.1201V117.54C153.62 118 153.69 120.2 152.14 121.92C150.94 123.24 149.15 123.91 146.8 123.91ZM141.36 80.0701L141.37 81.5502C141.38 82.8402 141.5 113.1 141.22 116.35C141.07 118.08 141.36 119.31 142.09 120.11C142.95 121.04 144.54 121.51 146.8 121.51C148.43 121.51 149.62 121.11 150.34 120.31C151.31 119.23 151.18 117.73 151.18 117.71L151.17 117.58V9.30017H151.21C151.2 9.15017 151.19 8.96008 151.18 8.71008C150.6 8.30008 147.92 8.41007 145.54 8.95007C138.63 10.6501 133.67 15.2501 130.41 23.0201C127.11 30.8701 125.6 41.7301 125.79 56.2301C125.93 67.2401 128.35 74.9102 132.79 78.4102C136.26 81.1402 139.75 80.4201 139.9 80.3901L141.36 80.0701Z" fill="#4B0A1E"/>
<path d="M78.83 107.3C55.6 107.3 36.71 88.5401 36.71 65.4801C36.71 42.4201 55.61 23.6602 78.83 23.6602C102.06 23.6602 120.95 42.4201 120.95 65.4801C120.95 88.5401 102.05 107.3 78.83 107.3ZM78.83 26.0602C56.94 26.0602 39.12 43.7401 39.12 65.4801C39.12 87.2201 56.93 104.9 78.83 104.9C100.72 104.9 118.54 87.2201 118.54 65.4801C118.53 43.7401 100.72 26.0602 78.83 26.0602Z" fill="#4B0A1E"/>
<path d="M78.83 98.5302C97.2156 98.5302 112.12 83.7331 112.12 65.4801C112.12 47.2271 97.2156 32.4302 78.83 32.4302C60.4445 32.4302 45.54 47.2271 45.54 65.4801C45.54 83.7331 60.4445 98.5302 78.83 98.5302Z" fill="#F18B61"/>
<path d="M78.8301 99.73C59.8101 99.73 44.3301 84.37 44.3301 65.48C44.3301 46.59 59.8101 31.23 78.8301 31.23C97.8501 31.23 113.33 46.59 113.33 65.48C113.32 84.36 97.8501 99.73 78.8301 99.73ZM78.8301 33.63C61.1401 33.63 46.7501 47.92 46.7501 65.48C46.7501 83.04 61.1401 97.33 78.8301 97.33C96.5201 97.33 110.91 83.04 110.91 65.48C110.91 47.91 96.5201 33.63 78.8301 33.63Z" fill="#4B0A1E"/>
<path d="M8.34034 15.1201H1.60035V47.2501C1.60035 47.2501 1.32036 59.3001 11.6404 64.1401V113.47C11.6404 113.47 11.6403 117.89 17.0603 117.53H17.3703C22.7803 117.89 22.7904 113.47 22.7904 113.47V64.1401C33.1104 59.2901 32.8303 47.2501 32.8303 47.2501V15.1201H25.8603V43.7902H19.4603V15.1201H14.3003V43.8501H8.44035L8.34034 15.1201Z" fill="#FDD974"/>
<path d="M17.98 118.75C17.77 118.75 17.55 118.74 17.33 118.73H17.09C14.98 118.86 13.3 118.37 12.11 117.26C10.48 115.74 10.43 113.7 10.43 113.47V64.8799C0.219963 59.5699 0.379985 47.7298 0.389985 47.2198V15.1199C0.389985 14.4599 0.929977 13.9199 1.59998 13.9199H8.33997C9.00997 13.9199 9.54996 14.4499 9.54996 15.1199L9.63999 42.6599H13.09V15.1299C13.09 14.4699 13.63 13.9299 14.3 13.9299H19.46C20.13 13.9299 20.67 14.4699 20.67 15.1299V42.5999H24.66V15.1299C24.66 14.4699 25.2 13.9299 25.87 13.9299H32.84C33.51 13.9299 34.05 14.4699 34.05 15.1299V47.2599C34.06 47.7499 34.21 59.5899 24.01 64.8999V113.48C24.01 113.71 23.96 115.75 22.33 117.27C21.24 118.25 19.79 118.75 17.98 118.75ZM17.06 116.33H17.37C17.4 116.33 17.42 116.33 17.45 116.33C18.89 116.43 19.97 116.15 20.66 115.5C21.54 114.69 21.58 113.47 21.58 113.46V64.1299C21.58 63.6699 21.85 63.2399 22.27 63.0499C31.77 58.5899 31.62 47.3799 31.62 47.2699V16.3198H27.06V43.7899C27.06 44.4499 26.52 44.9899 25.85 44.9899H19.45C18.78 44.9899 18.24 44.4499 18.24 43.7899V16.3198H15.5V43.8499C15.5 44.5099 14.96 45.0499 14.29 45.0499H8.42996C7.75996 45.0499 7.21997 44.5199 7.21997 43.8499L7.12998 16.3099H2.79996V47.2399C2.78996 47.7299 2.67996 58.5999 12.15 63.0499C12.57 63.2499 12.84 63.6699 12.84 64.1299V113.46C12.84 113.46 12.87 114.69 13.77 115.51C14.46 116.14 15.54 116.42 16.96 116.32C17 116.33 17.03 116.33 17.06 116.33Z" fill="#4B0A1E"/>
<path d="M48.2798 116.47C45.6698 116.47 43.5498 114.36 43.5498 111.77C43.5498 109.18 45.6698 107.07 48.2798 107.07C50.8898 107.07 53.0098 109.18 53.0098 111.77C53.0098 114.36 50.8898 116.47 48.2798 116.47ZM48.2798 108.99C46.7398 108.99 45.4798 110.24 45.4798 111.77C45.4798 113.3 46.7398 114.55 48.2798 114.55C49.8198 114.55 51.0798 113.3 51.0798 111.77C51.0798 110.24 49.8198 108.99 48.2798 108.99Z" fill="#4B0A1E"/>
<path d="M118.54 129.18H102.06C101.4 129.18 100.86 128.64 100.86 127.98C100.86 127.32 101.4 126.78 102.06 126.78H118.54C119.2 126.78 119.74 127.32 119.74 127.98C119.74 128.64 119.2 129.18 118.54 129.18Z" fill="#4B0A1E"/>
<path d="M123.84 125.11H115.54C114.88 125.11 114.34 124.57 114.34 123.91C114.34 123.25 114.88 122.71 115.54 122.71H123.84C124.5 122.71 125.04 123.25 125.04 123.91C125.04 124.58 124.5 125.11 123.84 125.11Z" fill="#4B0A1E"/>
<path d="M50.0401 4.66009C49.5401 4.80009 49.0201 4.51006 48.8801 4.01006L48.3001 1.93999C48.1601 1.43999 48.4601 0.93009 48.9501 0.79009C49.4501 0.65009 49.9701 0.939993 50.1101 1.43999L50.6901 3.51006C50.8301 4.00006 50.5401 4.52009 50.0401 4.66009Z" fill="#490D1F"/>
<path d="M51.9102 11.3202C51.4102 11.4602 50.8902 11.1703 50.7502 10.6703L50.1702 8.60026C50.0302 8.10026 50.3302 7.59024 50.8202 7.45024C51.3202 7.31024 51.8402 7.60026 51.9802 8.10026L52.5602 10.1703C52.7002 10.6603 52.4102 11.1802 51.9102 11.3202Z" fill="#490D1F"/>
<path d="M48.9302 7.14011C49.0402 7.64011 48.7102 8.1401 48.2102 8.2501L46.1002 8.70005C45.5902 8.81005 45.0902 8.49008 44.9802 7.98008C44.8702 7.48008 45.2002 6.98009 45.7002 6.87009L47.8102 6.42014C48.3202 6.32014 48.8202 6.64011 48.9302 7.14011Z" fill="#490D1F"/>
<path d="M55.8804 4.95991C55.9904 5.45991 55.6603 5.95989 55.1603 6.06989L53.0504 6.51997C52.5404 6.62997 52.0404 6.31 51.9304 5.8C51.8204 5.3 52.1504 4.79989 52.6504 4.68989L54.7604 4.23994C55.2704 4.12994 55.7704 4.45991 55.8804 4.95991Z" fill="#490D1F"/>
<path d="M113.88 23.0099C113.88 23.0099 112.83 20.4499 115.41 20.7299L121.27 24.8599V26.16L114.99 29.31C114.99 29.31 112.97 29.66 113.66 27.16L117.39 25.4599L113.88 23.0099Z" fill="#490D1F"/>
</svg>