<svg width="64" height="64" viewBox="0 0 64 64" fill="none" xmlns="http://www.w3.org/2000/svg">
<path d="M52.22 26.7803C51.79 23.3903 50.1601 20.6903 47.3001 18.8203C44.5701 17.0303 41.59 16.4803 38.45 17.6603C36.58 18.3603 35.09 19.6103 33.72 21.0203C33.33 21.4203 32.95 21.8303 32.6 22.2003C31.66 21.3003 30.7801 20.3603 29.8001 19.5303C27.2301 17.3703 24.29 16.5403 20.96 17.3803C15.4 18.7903 11.61 24.5103 13.02 30.7203C13.59 33.2103 14.9 35.3203 16.62 37.1803C19.72 40.5203 23.17 43.4703 26.82 46.1903C28.17 47.1903 29.56 48.1303 31.1 48.8403C32.05 49.2803 32.9801 49.3203 33.9201 48.8603C34.4701 48.5903 35.0301 48.3303 35.5601 48.0103C37.7501 46.7103 39.74 45.1303 41.7 43.5003C44.12 41.4903 46.4501 39.3803 48.5601 37.0403C50.0801 35.3503 51.26 33.4703 51.88 31.2703C52.07 30.6003 52.1701 29.9003 52.3001 29.2203C52.3001 28.5003 52.3001 27.7903 52.3001 27.0703C52.2701 26.9803 52.23 26.8803 52.22 26.7803ZM50.61 28.9603C50.32 31.4903 49.15 33.6003 47.47 35.4403C43.75 39.5203 39.57 43.0903 34.97 46.1703C34.36 46.5803 33.6901 46.8903 33.0501 47.2503C32.7001 47.4403 32.35 47.4503 32.02 47.2403C30.73 46.4403 29.3801 45.7003 28.1601 44.8003C24.1901 41.9003 20.46 38.7303 17.22 35.0203C15.83 33.4303 14.87 31.5903 14.51 29.4803C13.65 24.5003 16.93 19.8903 21.64 18.9703C22.11 18.8803 22.6 18.8603 23.08 18.8103C25 18.8103 26.62 19.5703 28.02 20.7803C29.04 21.6603 29.94 22.6803 30.89 23.6403C31.03 23.7803 31.1601 23.9403 31.3101 24.0803C32.1401 24.8603 32.94 24.8803 33.76 24.1003C34.5 23.4003 35.17 22.6403 35.89 21.9203C36.85 20.9603 37.89 20.1003 39.13 19.5203C41.34 18.4703 43.52 18.7103 45.64 19.7503C49.08 21.4303 51.05 25.1703 50.61 28.9603Z" fill="black"/>
<path d="M30.7399 63.3401C30.0799 63.2801 29.43 63.2201 28.77 63.1501C25.5 62.8201 22.3399 62.0301 19.3599 60.6601C10.0799 56.4201 4.04992 49.4001 1.34992 39.6201C0.479922 36.4801 0.209971 33.2701 0.39997 30.0201C0.81997 22.8401 3.37993 16.5101 8.10993 11.0701C12.6299 5.88013 18.3 2.51012 25.04 0.940125C26.79 0.530125 28.5599 0.280134 30.3599 0.200134C30.4899 0.190134 30.6199 0.160137 30.7399 0.140137C31.6899 0.140137 32.6499 0.140137 33.5999 0.140137C34.0299 0.180137 34.46 0.230132 34.89 0.260132C37.9 0.500132 40.82 1.15013 43.63 2.26013C51.38 5.31013 57.1199 10.5601 60.8199 17.9801C62.4499 21.2501 63.43 24.7101 63.81 28.3401C63.88 29.0001 63.9399 29.6601 63.9999 30.3201C63.9999 31.2701 63.9999 32.2101 63.9999 33.1601C63.9599 33.5801 63.91 34.0101 63.88 34.4401C63.6399 37.4801 62.9699 40.4201 61.8199 43.2401C58.6199 51.1201 53.14 56.8801 45.39 60.4901C42.28 61.9401 38.9899 62.8101 35.5699 63.1601C34.9199 63.2301 34.2599 63.2801 33.5999 63.3401C32.6399 63.3401 31.6899 63.3401 30.7399 63.3401ZM2.16999 31.7301C2.14999 48.1301 15.61 61.5001 32.15 61.5301C48.65 61.5601 62.15 48.1701 62.17 31.7601C62.19 15.3601 48.7299 1.98011 32.1899 1.96011C15.6799 1.94011 2.18999 15.3201 2.16999 31.7301Z" fill="black"/>
</svg>