<svg width="64" height="65" viewBox="0 0 64 65" fill="none" xmlns="http://www.w3.org/2000/svg">
<path d="M30.4699 64.1101C29.8099 64.0501 29.1599 63.9902 28.4999 63.9202C25.2299 63.5902 22.07 62.8001 19.09 61.4301C9.80997 57.1901 3.77996 50.1702 1.07996 40.3902C0.209957 37.2502 -0.0600554 34.0402 0.129945 30.7902C0.549945 23.6102 3.10997 17.2801 7.83997 11.8401C12.36 6.65015 18.03 3.28014 24.77 1.71014C26.52 1.30014 28.29 1.05015 30.09 0.970154C30.22 0.960154 30.3499 0.930156 30.4699 0.910156C31.4199 0.910156 32.38 0.910156 33.33 0.910156C33.76 0.950156 34.1899 1.00015 34.6199 1.03015C37.6299 1.27015 40.5499 1.92015 43.3599 3.03015C51.1099 6.08015 56.8499 11.3302 60.5499 18.7502C62.1799 22.0202 63.1599 25.4801 63.5399 29.1101C63.6099 29.7701 63.6699 30.4301 63.7299 31.0901C63.7299 32.0401 63.7299 32.9801 63.7299 33.9301C63.6899 34.3501 63.6399 34.7801 63.6099 35.2101C63.3699 38.2501 62.6999 41.1902 61.5499 44.0102C58.3499 51.8902 52.8699 57.6502 45.1199 61.2602C42.0099 62.7102 38.7199 63.5801 35.2999 63.9301C34.6499 64.0001 33.99 64.0501 33.33 64.1101C32.38 64.1101 31.4299 64.1101 30.4699 64.1101ZM1.90991 32.5002C1.88991 48.9002 15.35 62.2701 31.89 62.3001C48.39 62.3301 61.8899 48.9402 61.9099 32.5302C61.9299 16.1302 48.4699 2.75016 31.9299 2.73016C15.4099 2.71016 1.91991 16.0902 1.90991 32.5002Z" fill="black"/>
<path d="M38.5599 48.4502C36.6799 48.4202 35.1099 47.8102 33.6299 46.9202C31.6499 45.7202 30.0099 44.1402 28.5199 42.3902C25.2099 38.4902 22.7199 34.1302 21.0999 29.2902C20.4099 27.2202 19.9499 25.1102 19.9799 22.9202C19.9999 21.2802 20.3299 19.7002 21.2299 18.2902C21.3499 18.0902 21.5599 17.9202 21.7599 17.8102C22.8499 17.2502 23.9699 16.7902 25.1999 16.6302C25.5099 16.5902 25.8299 16.6102 26.1299 16.6502C26.7599 16.7302 27.1199 17.1202 27.2799 17.7102C27.7699 19.4502 28.2699 21.1902 28.7699 22.9402C28.8699 23.3002 28.9799 23.6602 29.0899 24.0202C29.3499 24.8702 28.9699 26.0602 28.2599 26.6102C27.3999 27.2902 26.7099 28.0802 26.4799 29.1802C26.3399 29.8702 26.4199 30.5502 26.7799 31.1702C27.9499 33.1902 29.1199 35.2002 30.2999 37.2102C30.8999 38.2402 32.2099 38.8202 33.4899 38.6102C34.0099 38.5202 34.5199 38.3902 35.0199 38.2102C35.8499 37.9102 37.0599 38.1502 37.6699 38.7802C39.1699 40.3202 40.6799 41.8702 42.1899 43.4102C42.8499 44.0802 42.9299 44.6602 42.4399 45.4602C41.8599 46.4202 40.9899 47.1002 40.1099 47.7602C39.9599 47.8702 39.7999 47.9602 39.6599 48.0802C39.3199 48.3802 38.9199 48.5302 38.5599 48.4502Z" fill="black"/>
</svg>