<svg width="65" height="64" viewBox="0 0 65 64" fill="none" xmlns="http://www.w3.org/2000/svg">
<path d="M64.2699 31.56C64.1599 23.44 61.2999 16.11 55.4199 10.02C49.5499 3.93004 42.3098 0.630037 33.8298 0.300037C23.8498 -0.0899625 15.3999 3.45004 8.67989 10.8C3.59989 16.36 0.879836 22.99 0.619836 30.49C0.259836 40.4 3.8098 48.7801 11.2098 55.4401C16.8398 60.5101 23.5499 63.2001 31.1499 63.4401C41.0899 63.7601 49.4999 60.2401 56.1699 52.9201C61.5799 46.9701 64.1899 39.88 64.2699 31.56Z" fill="white"/>
<path d="M64.2699 31.56C64.1899 39.88 61.5799 46.9701 56.1599 52.9201C49.4899 60.2401 41.0799 63.7601 31.1399 63.4401C23.5399 63.1901 16.8398 60.5001 11.1998 55.4401C3.79979 48.7801 0.249826 40.4 0.609826 30.49C0.879826 22.99 3.58988 16.36 8.66988 10.8C15.3899 3.45004 23.8398 -0.0899625 33.8198 0.300037C42.2998 0.630037 49.5399 3.93004 55.4099 10.02C61.2999 16.1 64.1599 23.44 64.2699 31.56ZM53.7198 52.5401C56.7498 49.4401 59.0198 45.9 60.4698 41.86C62.6798 35.7 62.8499 29.46 60.9199 23.21C58.8599 16.54 54.8699 11.2301 49.0599 7.32006C43.2799 3.43006 36.8599 1.79004 29.8999 2.36003C23.0799 2.92003 17.1398 5.57004 12.1198 10.18C7.94984 14.01 5.08984 18.67 3.61984 24.12C1.84984 30.7 2.29981 37.15 4.96981 43.43C6.40981 46.84 8.46979 49.85 11.0698 52.49C13.6698 45.33 18.6498 40.8301 26.0698 39.0101C22.5098 36.9001 20.2699 33.8201 19.6599 29.7301C19.0499 25.6301 20.2298 21.9901 23.1098 18.9801C25.4498 16.5401 28.3699 15.2001 31.7699 15.0701C35.9999 14.9001 39.5599 16.43 42.2999 19.65C44.7499 22.54 45.6999 25.9301 45.1599 29.6601C44.5599 33.7901 42.3198 36.87 38.6998 39.03C42.2398 39.79 45.3499 41.34 48.0199 43.74C50.7099 46.17 52.5898 49.0901 53.7198 52.5401ZM42.6699 42.5701C41.6799 42.0801 40.6598 41.67 39.5898 41.37C38.0598 40.94 36.4999 40.6601 34.8999 40.6601C33.2999 40.6601 31.7098 40.6401 30.1098 40.6701C29.3498 40.6801 28.5898 40.75 27.8298 40.83C26.8298 40.93 25.8599 41.18 24.9099 41.4701C23.5699 41.8801 22.2998 42.4601 21.0898 43.1701C20.0098 43.8001 18.9998 44.5301 18.0898 45.3801C17.4398 46.0001 16.8298 46.67 16.2398 47.34C15.4998 48.18 14.8998 49.1201 14.3698 50.1001C13.7398 51.2701 13.2299 52.4801 12.8899 53.7601C12.8299 54.0001 12.7999 54.15 13.0399 54.33C13.6699 54.79 14.2599 55.31 14.8899 55.77C16.0599 56.64 17.2998 57.4101 18.6098 58.0701C19.4198 58.4801 20.2498 58.85 21.0798 59.21C22.2598 59.72 23.4698 60.1301 24.7198 60.4401C25.6398 60.6701 26.5698 60.8801 27.4998 61.0401C28.3498 61.1901 29.2098 61.2601 30.0698 61.3501C30.3298 61.3801 30.5798 61.3801 30.8398 61.3901C31.3998 61.4201 31.9499 61.4501 32.5099 61.4701C32.7699 61.48 33.0199 61.4301 33.2799 61.4101C33.2799 61.4301 33.2799 61.4501 33.2899 61.4701C34.1899 61.39 35.0998 61.3201 35.9998 61.2301C36.6198 61.1701 37.2398 61.1101 37.8398 60.9701C38.8898 60.7401 39.9398 60.4801 40.9798 60.2001C42.4298 59.8001 43.8298 59.2601 45.1898 58.6001C45.9998 58.2101 46.7998 57.79 47.5698 57.33C48.4498 56.8 49.3099 56.2301 50.1599 55.6401C50.7899 55.1901 51.3798 54.6901 51.9798 54.2001C52.0398 54.1501 52.0699 54.0301 52.0499 53.9501C51.9899 53.7001 51.9098 53.4501 51.8298 53.2001C51.4698 52.0301 50.9698 50.93 50.3798 49.86C49.7298 48.69 48.9499 47.6 48.0499 46.62M32.4199 17.08C26.3899 17.11 21.6399 21.9001 21.5599 27.7001C21.4799 33.8001 26.4298 38.6601 32.4998 38.6301C35.4798 38.6201 38.0599 37.5101 40.1399 35.3901C42.4199 33.0601 43.4698 30.25 43.2298 27C42.8598 21.83 38.4599 17.12 32.4199 17.08Z" fill="black"/>
</svg>