<svg width="65" height="64" viewBox="0 0 65 64" fill="none" xmlns="http://www.w3.org/2000/svg">
<path d="M32.81 52.3399C32.19 52.2499 31.6 52.0999 31.04 51.8199C29.81 51.2199 28.93 50.2799 28.42 49.0099C28.22 48.4999 28.59 47.9998 29.13 48.0498C29.43 48.0798 29.6199 48.2498 29.7199 48.5198C29.9799 49.1698 30.3899 49.6999 30.9399 50.1299C32.9299 51.6799 35.85 50.9399 36.86 48.6299C36.94 48.4399 37.04 48.2599 37.2299 48.1499C37.4699 48.0199 37.79 48.0499 38 48.2299C38.23 48.4299 38.3199 48.7199 38.2099 48.9999C37.8999 49.7899 37.43 50.4699 36.79 51.0299C35.94 51.7699 34.9599 52.1799 33.8399 52.3199" fill="black"/>
<path d="M54.89 28.8498C54.86 29.2198 54.83 29.5998 54.79 29.9698C54.61 31.8898 54.1699 33.7498 53.4499 35.5398C53.2999 35.9198 53.1299 36.2998 52.9599 36.6798C52.7799 37.0698 52.38 37.2198 52.02 37.0498C51.66 36.8798 51.5199 36.4798 51.6999 36.0898C52.2999 34.8098 52.75 33.4698 53.05 32.0898C53.45 30.2598 53.5899 28.4198 53.4399 26.5498C53.3899 25.9698 53.31 25.3898 53.24 24.8098C53.23 24.7498 53.25 24.6898 53.25 24.6398C53.25 24.6198 53.25 24.5998 53.24 24.5798C53.13 24.3998 53.13 24.2098 53.15 24.0098C53.12 23.9498 53.06 23.8898 53.04 23.8098C52.71 22.3298 52.22 20.9098 51.55 19.5498C51.37 19.1798 51.51 18.7698 51.86 18.5998C52.22 18.4298 52.62 18.5798 52.81 18.9598C53.49 20.3498 54 21.7998 54.35 23.3098C54.62 24.4998 54.79 25.6998 54.85 26.9098C54.85 26.9698 54.87 27.0398 54.88 27.0998C54.89 27.6998 54.89 28.2798 54.89 28.8498Z" fill="black"/>
<path d="M12.05 25.9397C12.07 25.7197 12.09 25.4997 12.11 25.2697C12.31 22.6697 12.97 20.1897 14.11 17.8397C14.3 17.4497 14.69 17.2997 15.05 17.4697C15.42 17.6397 15.55 18.0497 15.36 18.4397C14.7 19.7997 14.2 21.2197 13.88 22.6997C13.8 23.0597 13.74 23.4297 13.67 23.7897C13.66 23.8597 13.5901 23.9197 13.5601 23.9797C13.5401 24.0197 13.54 24.0697 13.52 24.1197C13.55 24.1197 13.58 24.1197 13.65 24.1097C13.6 24.2297 13.54 24.3397 13.5 24.4497C13.48 24.4997 13.47 24.5697 13.48 24.6197C13.49 24.7097 13.53 24.7997 13.53 24.8997C13.5 25.6797 13.43 26.4597 13.45 27.2297C13.5 29.8997 14.08 32.4497 15.21 34.8797C15.3 35.0697 15.36 35.2497 15.3 35.4597C15.22 35.7297 14.99 35.9297 14.71 35.9597C14.41 35.9897 14.13 35.8497 14 35.5597C13.72 34.9097 13.44 34.2597 13.2 33.5997C12.68 32.1497 12.3499 30.6497 12.1899 29.1197C12.1499 28.7097 12.12 28.3097 12.09 27.8997C12.09 27.8497 12.0701 27.7997 12.0601 27.7597C12.0501 27.1597 12.05 26.5497 12.05 25.9397Z" fill="black"/>
<path d="M33.31 47.1699C28.64 47.1699 23.9599 47.1699 19.2899 47.1699C17.5399 47.1699 16.2399 45.8199 16.3399 44.0899C16.3799 43.4299 16.6499 42.8599 17.0899 42.3699C18.2499 41.0899 19.1699 39.6599 19.8399 38.0699C20.4099 36.7199 20.79 35.3198 20.92 33.8598C20.98 33.1398 20.9999 32.4199 21.0199 31.7099C21.0699 29.2099 21.7799 26.9199 23.2399 24.8799C24.8099 22.6799 26.8899 21.1199 29.4799 20.2799C29.5999 20.2399 29.6199 20.1799 29.6199 20.0699C29.6199 19.1399 29.6199 18.2199 29.6199 17.2899C29.6199 15.3899 31.0799 13.7798 32.9499 13.6098C34.8899 13.4398 36.6099 14.7198 36.9599 16.6098C36.9999 16.8298 37.0199 17.0599 37.0199 17.2899C37.0299 18.2199 37.0299 19.1399 37.0199 20.0699C37.0199 20.1999 37.0499 20.2699 37.1898 20.3099C41.3398 21.7599 44.4599 25.3299 45.3499 29.6299C45.5699 30.6899 45.6099 31.7699 45.6399 32.8499C45.6999 34.7599 46.1399 36.5899 46.9099 38.3399C47.5799 39.8699 48.5199 41.2199 49.6199 42.4699C50.3499 43.2999 50.4999 44.2899 50.1099 45.3199C49.7099 46.3499 48.9399 46.9699 47.8299 47.1399C47.6699 47.1599 47.5099 47.1699 47.3499 47.1699C42.6599 47.1699 37.98 47.1699 33.31 47.1699ZM28.4099 45.8499C28.4199 45.8399 28.4499 45.7999 28.4899 45.7999C28.6199 45.7899 28.7499 45.7999 28.8799 45.7999C32.1799 45.7999 35.4799 45.7999 38.7799 45.7999C41.5999 45.7999 44.4199 45.7999 47.2499 45.7899C47.5599 45.7899 47.86 45.7099 48.17 45.6599C48.19 45.6599 48.2199 45.6298 48.2299 45.6098C48.3399 45.4898 48.45 45.3799 48.55 45.2499C48.85 44.8599 48.9599 44.4099 48.8499 43.9299C48.7699 43.5899 48.5399 43.3499 48.3199 43.0999C47.0099 41.6199 46.01 39.9699 45.31 38.1299C44.58 36.2199 44.2299 34.2399 44.2199 32.1999C44.2199 31.6699 44.1799 31.1399 44.1099 30.6199C43.8699 28.9499 43.2899 27.3899 42.3399 25.9899C40.8099 23.7199 38.7499 22.1599 36.0699 21.4299C34.1299 20.8999 32.1899 20.9399 30.2699 21.4899C28.1499 22.0899 26.3799 23.2499 24.9599 24.9299C23.2399 26.9699 22.3999 29.3299 22.4099 31.9899C22.4099 32.9199 22.3599 33.8499 22.2199 34.7699C21.8999 36.8799 21.1799 38.8499 20.0899 40.6799C19.5399 41.6099 18.89 42.4699 18.17 43.2699C17.67 43.8199 17.5999 44.4799 17.9699 45.0899C18.1499 45.3899 18.4099 45.6299 18.7399 45.7299C18.9499 45.7999 19.1799 45.7899 19.4099 45.7999C22.3099 45.7999 25.2099 45.7999 28.1099 45.7999C28.1899 45.7999 28.2899 45.8299 28.4099 45.8499ZM35.6199 19.8899C35.6199 19.8399 35.6299 19.7999 35.6299 19.7699C35.6299 18.9399 35.6299 18.1099 35.6299 17.2899C35.6299 17.1799 35.6299 17.0699 35.6099 16.9599C35.4299 15.7399 34.3599 14.8899 33.1199 14.9799C31.9399 15.0599 31.0099 16.0799 31.0099 17.2899C31.0099 18.0899 31.0099 18.8899 31.0099 19.6899C31.0099 19.7499 31.0099 19.8099 31.0099 19.8699C32.5499 19.5999 34.0699 19.5899 35.6199 19.8899Z" fill="black"/>
<path d="M51.77 27.4698C51.79 29.8998 51.31 32.2298 50.32 34.4498C50.18 34.7698 49.9 34.9598 49.61 34.9298C49.28 34.8998 49.03 34.6998 48.98 34.3798C48.96 34.2298 48.9801 34.0498 49.0501 33.9098C49.4701 32.9498 49.8 31.9598 50.03 30.9398C50.39 29.2998 50.4801 27.6498 50.2901 25.9898C50.1301 24.5298 49.76 23.1198 49.2 21.7698C48.98 21.2498 49.31 20.7398 49.84 20.7598C50.16 20.7698 50.37 20.9398 50.48 21.2398C50.68 21.7698 50.8901 22.2998 51.0501 22.8398C51.5201 24.3498 51.75 25.8798 51.77 27.4698Z" fill="black"/>
<path d="M17.8401 20.3099C17.8001 20.4199 17.7801 20.5399 17.7301 20.6499C17.1601 22.0299 16.7902 23.4699 16.6402 24.9599C16.3702 27.6399 16.7802 30.2199 17.8702 32.6999C17.9502 32.8799 18.0101 33.0499 17.9701 33.2499C17.9001 33.5399 17.6601 33.7599 17.3601 33.7899C17.0601 33.8199 16.7802 33.6599 16.6502 33.3699C16.2102 32.3899 15.8602 31.3799 15.6202 30.3299C15.1902 28.5199 15.0802 26.6899 15.2602 24.8399C15.4202 23.1799 15.8301 21.5799 16.4801 20.0499C16.6201 19.7199 16.9402 19.5499 17.2802 19.6299C17.6002 19.6899 17.8201 19.9699 17.8401 20.3099Z" fill="black"/>
<path d="M31.27 63.2298C30.61 63.1698 29.96 63.1098 29.3 63.0398C26.03 62.7098 22.87 61.9198 19.89 60.5498C10.61 56.3098 4.57995 49.2898 1.87995 39.5098C1.00995 36.3698 0.74 33.1598 0.93 29.9098C1.35 22.7298 3.90996 16.3998 8.63996 10.9598C13.16 5.76978 18.8299 2.39977 25.5699 0.829773C27.3199 0.419773 29.09 0.169783 30.89 0.0897827C31.02 0.0797827 31.14 0.0497852 31.27 0.0297852C32.22 0.0297852 33.18 0.0297852 34.13 0.0297852C34.56 0.0697852 34.99 0.11978 35.42 0.14978C38.43 0.38978 41.35 1.03978 44.16 2.14978C51.91 5.19978 57.6499 10.4498 61.3499 17.8698C62.9799 21.1398 63.9599 24.5998 64.3399 28.2298C64.4099 28.8898 64.47 29.5498 64.53 30.2098C64.53 31.1598 64.53 32.0998 64.53 33.0498C64.49 33.4698 64.44 33.8998 64.41 34.3298C64.17 37.3698 63.4999 40.3098 62.3499 43.1298C59.1499 51.0098 53.67 56.7698 45.92 60.3798C42.81 61.8298 39.5199 62.6998 36.0999 63.0498C35.4499 63.1198 34.79 63.1698 34.13 63.2298C33.17 63.2298 32.22 63.2298 31.27 63.2298ZM2.6999 31.6098C2.6799 48.0098 16.14 61.3798 32.68 61.4098C49.18 61.4398 62.6799 48.0498 62.6999 31.6398C62.7199 15.2398 49.2599 1.85978 32.7199 1.83978C16.1999 1.81978 2.7099 15.1998 2.6999 31.6098Z" fill="black"/>
</svg>