<svg width="138" height="89" viewBox="0 0 138 89" fill="none" xmlns="http://www.w3.org/2000/svg">
<path d="M44.5103 88.77H41.5103C37.2403 88.77 33.7803 85.31 33.7803 81.04V7.93994C33.7803 3.66994 37.2403 0.209961 41.5103 0.209961H44.5103C48.7803 0.209961 52.2402 3.66994 52.2402 7.93994V81.04C52.2502 85.3 48.7903 88.77 44.5103 88.77Z" fill="#0688A4"/>
<path d="M95.48 88.77H92.48C88.21 88.77 84.75 85.31 84.75 81.04V7.93994C84.75 3.66994 88.21 0.209961 92.48 0.209961H95.48C99.75 0.209961 103.21 3.66994 103.21 7.93994V81.04C103.22 85.3 99.76 88.77 95.48 88.77Z" fill="#0688A4"/>
<path d="M80.0806 36.5498H57.3105V53.7598H80.0806V36.5498Z" fill="#010202"/>
<path d="M25.1304 17.5801H22.0403C19.2803 17.5801 17.0504 19.8 17.0504 22.54V37.3201H5.39038C2.63038 37.3201 0.400391 39.54 0.400391 42.28V45.3501C0.400391 48.0901 2.64038 50.3101 5.39038 50.3101H17.0504V66.4299C17.0504 69.1699 19.2903 71.3899 22.0403 71.3899H25.1304C27.8904 71.3899 30.1204 69.1699 30.1204 66.4299V22.54C30.1204 19.8 27.8904 17.5801 25.1304 17.5801Z" fill="#010202"/>
<path d="M112.89 17.5801H115.98C118.74 17.5801 120.97 19.8 120.97 22.54V37.3201H132.63C135.39 37.3201 137.62 39.54 137.62 42.28V45.3501C137.62 48.0901 135.38 50.3101 132.63 50.3101H120.97V66.4299C120.97 69.1699 118.73 71.3899 115.98 71.3899H112.89C110.13 71.3899 107.9 69.1699 107.9 66.4299V22.54C107.89 19.8 110.13 17.5801 112.89 17.5801Z" fill="#010202"/>
</svg>