<svg width="75" height="67" viewBox="0 0 75 67" fill="none" xmlns="http://www.w3.org/2000/svg">
<path d="M9.62061 59.2102V30.8403L5.5506 34.5303C4.8906 35.1903 4.1006 35.6204 3.1806 35.6204C1.6006 35.6204 0.350586 34.6203 0.350586 33.0403C0.350586 32.0803 0.710605 31.4203 1.37061 30.8403L33.3006 1.71021C34.4506 0.650205 35.8506 0.050293 37.2606 0.050293C38.7106 0.050293 40.0706 0.650205 41.2606 1.71021L53.2306 12.6204V2.29028C53.2306 0.910283 54.1506 0.0102539 55.5106 0.0102539H59.9206C61.3206 0.0102539 62.2006 0.920283 62.2006 2.29028V20.8003L73.1906 30.8303C73.8506 31.4103 74.2106 32.0703 74.2106 33.0303C74.2106 34.6103 72.9306 35.6104 71.3806 35.6104C70.4206 35.6104 69.6406 35.1803 69.0006 34.5203L64.9306 30.8303V59.2002C64.9306 63.6502 62.2506 66.2703 57.7106 66.2703H16.8006C12.2606 66.2703 9.62061 63.6502 9.62061 59.2102ZM46.3006 60.8303H56.4406C58.4406 60.8303 59.4906 59.7402 59.4906 57.7202V25.8801L38.3406 6.59033C38.0006 6.25033 37.6406 6.12036 37.2506 6.12036C36.8606 6.12036 36.5006 6.29033 36.1906 6.59033L15.0006 25.8801V57.7202C15.0006 59.7402 16.0906 60.8303 18.0706 60.8303H28.1906V40.1301C28.1906 38.6801 29.1506 37.7603 30.6006 37.7603H43.9106C45.3406 37.7603 46.2806 38.6801 46.2806 40.1301V60.8303H46.3006Z" fill="#727272"/>
</svg>