<svg width="89" height="73" viewBox="0 0 89 73" fill="none" xmlns="http://www.w3.org/2000/svg">
<path d="M70.1995 72.96H18.3395C8.21948 72.96 0.0195312 64.76 0.0195312 54.64V18.32C0.0195312 8.20001 8.21948 0 18.3395 0H70.1995C80.3195 0 88.5195 8.20001 88.5195 18.32V54.64C88.5195 64.75 80.3195 72.96 70.1995 72.96Z" fill="#C6C6C6"/>
<path d="M37.97 31.03C38.46 31.87 38.9301 32.67 39.4101 33.49C38.3801 34.69 37.21 35.74 35.86 36.57C32.9 38.4 29.68 39.07 26.23 38.74C22.58 38.39 19.3801 39.39 16.6301 41.82C16.0001 42.38 15.35 42.93 14.73 43.47C21.27 49.96 27.79 56.44 34.33 62.93C35.23 62.16 36.14 61.32 37.1 60.56C40.15 58.15 43.6301 57.07 47.5201 57.38C49.6401 57.55 51.7301 57.52 53.7601 56.75C55.5601 56.07 57.1101 55.04 58.4001 53.63C61.0101 50.78 64.24 49.12 68.1 48.75C69.6 48.61 71.11 48.63 72.61 48.58C72.71 48.58 72.8 48.57 72.97 48.56C72.86 48.44 72.78 48.35 72.7 48.27C67.1 42.71 61.4901 37.14 55.8901 31.58C55.6701 31.36 55.6301 31.21 55.7901 30.93C56.2101 30.23 56.5901 29.5 57.0101 28.75C57.1001 28.82 57.1801 28.88 57.2501 28.96C63.9101 35.57 70.57 42.18 77.23 48.79C77.73 49.29 77.8801 49.86 77.62 50.43C77.3501 51.03 76.85 51.27 76.19 51.29C73.71 51.35 71.2301 51.38 68.7501 51.52C65.5501 51.7 62.8301 52.99 60.6701 55.33C58.2001 58.01 55.1801 59.64 51.5601 60.16C50.0801 60.37 48.6101 60.25 47.1301 60.16C43.8901 59.96 41.0201 60.93 38.5401 63C37.4201 63.94 36.33 64.92 35.22 65.87C34.5 66.49 33.76 66.45 33.09 65.78C25.96 58.7 18.83 51.62 11.7 44.54C10.98 43.82 11.0001 42.97 11.7701 42.3C12.8901 41.32 14.0001 40.33 15.1501 39.37C18.2001 36.83 21.72 35.66 25.69 35.89C27.12 35.97 28.54 36.1 29.97 35.85C32.64 35.39 34.89 34.17 36.74 32.21C37.09 31.84 37.4501 31.49 37.8001 31.13C37.8501 31.11 37.89 31.08 37.97 31.03Z" fill="#686C6E"/>
<path d="M58.59 18.3198C58.59 19.7898 58.19 21.1798 57.69 22.5398C56.55 25.6498 54.9901 28.5598 53.2701 31.3798C51.6001 34.1198 49.83 36.8098 48.08 39.5098C47.49 40.4198 46.3 40.4298 45.69 39.5398C42.63 35.0798 39.74 30.5298 37.38 25.6598C36.53 23.9198 35.76 22.1398 35.38 20.2298C34.8 17.3598 35.41 14.6799 37.01 12.2699C39.54 8.43985 43.1901 6.61981 47.8001 6.90981C53.3201 7.25981 57.83 11.5998 58.49 17.0598C58.53 17.4698 58.55 17.8998 58.59 18.3198ZM51.25 29.2298C52.7 26.7798 54.0301 24.2599 55.0201 21.5899C55.5601 20.1399 55.9101 18.6698 55.6501 17.0998C55.0501 13.5798 52.4101 10.7299 48.9301 9.89986C45.4301 9.05986 41.7601 10.3998 39.6601 13.3498C38.0501 15.6098 37.49 18.0898 38.44 20.7598C38.92 22.1098 39.46 23.4398 40.08 24.7298C41.95 28.6198 44.23 32.2698 46.6 35.8698C46.68 35.9898 46.76 36.1098 46.86 36.2498C46.95 36.1298 47.02 36.0398 47.08 35.9498" fill="#686C6E"/>
<path d="M53.2301 17.5901C53.2301 21.1001 50.3801 23.92 46.8501 23.91C43.3401 23.91 40.4801 21.05 40.5001 17.55C40.5101 14.07 43.3801 11.26 46.8901 11.27C50.4001 11.28 53.2301 14.1001 53.2301 17.5901ZM50.4101 17.57C50.4101 15.63 48.8001 14.05 46.8401 14.06C44.9101 14.07 43.3202 15.65 43.3102 17.58C43.3002 19.51 44.9301 21.12 46.8701 21.11C48.8201 21.11 50.4101 19.52 50.4101 17.57Z" fill="#686C6E"/>
</svg>