<svg width="68" height="68" viewBox="0 0 68 68" fill="none" xmlns="http://www.w3.org/2000/svg">
<path d="M0.880859 33.8899C0.880859 15.6899 15.9409 0.629883 34.1409 0.629883C52.3209 0.629883 67.4208 15.6899 67.4208 33.8899C67.4208 52.1099 52.3608 67.1699 34.1608 67.1699C15.9808 67.1699 0.880859 52.1099 0.880859 33.8899ZM54.4609 52.3101C58.8509 47.4501 61.5209 40.9899 61.5209 33.8899C61.4809 18.7099 49.3009 6.53003 34.1409 6.53003C18.9609 6.53003 6.84088 18.7099 6.84088 33.8899C6.84088 40.9899 9.49086 47.44 13.8809 52.29C17.2209 48.45 24.5908 45.01 34.1608 45.01C43.7508 45.01 51.1209 48.4401 54.4609 52.3101ZM23.0009 27.3C22.9809 20.73 27.9208 15.28 34.1608 15.28C40.3808 15.28 45.3209 20.73 45.3209 27.3C45.3209 34.26 40.4208 39.62 34.1608 39.54C27.8808 39.52 23.0409 34.26 23.0009 27.3Z" fill="#B7B7B6"/>
</svg>