<svg width="105" height="123" viewBox="0 0 105 123" fill="none" xmlns="http://www.w3.org/2000/svg">
<path d="M8.05011 33.7598L0.870117 122.11H104.48L97.5601 33.7598H8.05011Z" fill="#010202"/>
<path d="M11.8105 37.48L5.23047 118.39H100.12L93.7805 37.48H11.8105Z" fill="#EA5457"/>
<path d="M25.4901 56.4197H25.2502C23.4102 56.4197 21.9102 54.9198 21.9102 53.0798V52.8896C21.9102 51.0496 23.4102 49.5498 25.2502 49.5498H25.4901C27.3301 49.5498 28.8301 51.0496 28.8301 52.8896V53.0798C28.8301 54.9198 27.3201 56.4197 25.4901 56.4197Z" fill="#010202"/>
<path d="M81.6503 56.4197H81.4103C79.5703 56.4197 78.0703 54.9198 78.0703 53.0798V52.8896C78.0703 51.0496 79.5703 49.5498 81.4103 49.5498H81.6503C83.4903 49.5498 84.9903 51.0496 84.9903 52.8896V53.0798C84.9903 54.9198 83.4903 56.4197 81.6503 56.4197Z" fill="#010202"/>
<path d="M23.9997 54.3401C22.5397 51.6101 22.4697 43.2 22.4697 41.54C22.4697 18.95 36.2897 0.560059 53.2697 0.560059C70.2497 0.560059 84.0697 18.94 84.0697 41.54C84.0697 45.53 83.6397 49.47 82.7997 53.26L79.7697 52.5901C80.5697 49.0201 80.9697 45.3 80.9697 41.54C80.9697 20.64 68.5397 3.63989 53.2697 3.63989C37.9997 3.63989 25.5697 20.64 25.5697 41.54C25.5697 45.35 25.9297 51.3899 26.7397 52.8999L23.9997 54.3401Z" fill="#010202"/>
</svg>