<svg width="44" height="48" viewBox="0 0 44 48" fill="none" xmlns="http://www.w3.org/2000/svg">
<path d="M29.8297 34.48C24.9297 37.48 19.6797 38.27 14.1397 36.59C9.61973 35.22 6.12972 32.47 3.68972 28.46C-1.26028 20.32 0.789728 9.87997 8.41973 4.11997C15.9297 -1.54003 26.6497 -0.67 33.1597 6.09C39.8197 13.01 40.2997 24.3799 33.0297 31.8499C33.5397 32.43 34.0497 33.01 34.5497 33.59C37.0097 36.43 39.4797 39.2599 41.9397 42.0999C42.6797 42.9599 43.2297 43.92 43.4497 45.04C43.5097 45.36 43.5297 45.7 43.4897 46.03C43.3697 47.02 42.6797 47.4699 41.7097 47.2199C40.7897 46.9799 40.0597 46.43 39.4497 45.74C38.2597 44.41 37.0997 43.05 35.9297 41.71C34.2297 39.76 32.5297 37.8 30.8397 35.84C30.4797 35.42 30.1697 34.94 29.8297 34.48ZM19.6597 34.17C20.0297 34.17 20.4097 34.18 20.7797 34.17C21.0197 34.16 21.2497 34.14 21.4897 34.11C24.4097 33.76 27.0397 32.71 29.3797 30.95C34.4097 27.16 36.5697 20.59 34.7797 14.64C32.6397 7.51999 25.4297 2.66 17.3697 3.78C14.3597 4.2 11.6897 5.41996 9.3597 7.35996C4.4397 11.46 2.63971 18.31 4.92971 24.25C7.23971 30.25 13.0597 34.18 19.6597 34.17Z" fill="#C6C6C6"/>
</svg>