<svg width="154" height="93" viewBox="0 0 154 93" fill="none" xmlns="http://www.w3.org/2000/svg">
<path d="M104.31 72.9097H56.2295V91.2496H104.31V72.9097Z" fill="#75CCF4"/>
<path d="M105.689 92.6199H54.8691V71.5498H105.689V92.6199ZM57.6091 89.8896H102.939V74.2698H57.6091V89.8896Z" fill="#27348B"/>
<path d="M47.8892 23.9998C47.8892 23.9998 42.3792 29.0198 44.3992 37.1498C44.3992 37.1498 48.8192 50.7398 60.0692 61.2698V72.8998H100.969V61.9998L106.539 57.1997C106.539 57.1997 110.539 54.1397 110.509 48.8397V18.7197H88.8892" fill="white"/>
<path d="M102.339 74.2697H58.6992V61.8596C47.6492 51.2696 43.2792 38.1296 43.0992 37.5696L43.0692 37.4796C40.8792 28.6596 46.7092 23.2196 46.9592 22.9996L48.8192 24.9996C48.6192 25.1796 43.9592 29.5997 45.7192 36.7697C45.9992 37.6097 50.4793 50.4097 61.0093 60.2797L61.4392 60.6797V71.5397H99.5892V61.3796L105.689 56.1296C105.829 56.0196 109.149 53.3796 109.129 48.8596V20.0996H88.8793V17.3696H111.879V48.8496C111.909 54.5296 107.869 57.8896 107.409 58.2596L102.339 62.6296V74.2697Z" fill="#27348B"/>
<path d="M113.47 14.1996C113.37 14.1896 113.27 14.1797 113.16 14.1797H42.3597C41.9097 14.1797 41.4998 14.2197 41.1198 14.2997C38.0798 6.74968 30.6497 1.42969 21.9697 1.42969C13.4997 1.42969 6.2298 6.49963 3.0498 13.7496H21.9697V30.0597H3.0498C6.2298 37.3097 13.4997 42.3796 21.9697 42.3796C30.6497 42.3796 38.0798 37.0496 41.1198 29.5096C41.4998 29.5796 41.9097 29.6296 42.3597 29.6296H113.16C113.22 29.6296 113.28 29.6196 113.34 29.6196C116.36 37.1996 123.81 42.5597 132.51 42.5597C140.98 42.5597 148.25 37.4896 151.43 30.2396H132.51V13.9297H151.43C148.25 6.67969 140.98 1.60962 132.51 1.60962C123.93 1.59962 116.57 6.79958 113.47 14.1996Z" fill="#75CCF4"/>
<path d="M132.51 43.9098C123.75 43.9098 115.97 38.8697 112.43 30.9797H42.3495C42.2195 30.9797 42.0995 30.9797 41.9695 30.9697C38.3995 38.7597 30.6495 43.7297 21.9595 43.7297C13.1995 43.7297 5.27954 38.5697 1.77954 30.5897L0.939453 28.6798H20.5795V15.0997H0.939453L1.77954 13.1897C5.27954 5.2097 13.1995 0.0498047 21.9595 0.0498047C30.6495 0.0498047 38.3995 5.0297 41.9695 12.8197C42.0995 12.8097 42.2195 12.8098 42.3495 12.8098H112.579C116.189 5.13981 123.91 0.229736 132.51 0.229736C141.27 0.229736 149.189 5.38975 152.689 13.3698L153.53 15.2798H133.89V28.8698H153.53L152.689 30.7798C149.189 38.7598 141.27 43.9098 132.51 43.9098ZM113.329 28.2498H114.26L114.599 29.1097C117.529 36.4497 124.55 41.1897 132.5 41.1897C139.44 41.1897 145.789 37.4897 149.199 31.5897H131.13V12.5498H149.199C145.789 6.6598 139.45 2.95972 132.5 2.95972C124.7 2.95972 117.729 7.57973 114.729 14.7197L114.349 15.6298L113.339 15.5498C113.279 15.5498 113.22 15.5398 113.16 15.5398H42.3595C42.0195 15.5398 41.6995 15.5698 41.3795 15.6298L40.2695 15.8397L39.8495 14.7898C36.9095 7.48979 29.8895 2.76978 21.9695 2.76978C15.0295 2.76978 8.67954 6.46975 5.27954 12.3698H23.3495V31.4098H5.27954C8.68954 37.2998 15.0295 40.9998 21.9695 40.9998C29.8895 40.9998 36.8995 36.2797 39.8495 28.9797L40.2695 27.9397L41.3795 28.1498C41.7295 28.2198 42.0395 28.2498 42.3695 28.2498H113.14C113.19 28.2498 113.259 28.2498 113.329 28.2498Z" fill="#27348B"/>
<path d="M108.239 19.9697C109.359 19.9697 110.269 20.8697 110.269 21.9897C110.269 23.0997 109.359 23.9998 108.239 23.9998H46.2292C45.0992 23.9998 44.1992 23.0997 44.1992 21.9897C44.1992 20.8797 45.1092 19.9697 46.2292 19.9697H108.239Z" fill="white"/>
<path d="M108.239 25.3596H46.2294C44.3494 25.3596 42.8193 23.8396 42.8193 21.9796C42.8193 20.1196 44.3494 18.5996 46.2294 18.5996H108.239C110.119 18.5996 111.639 20.1196 111.639 21.9796C111.639 23.8496 110.119 25.3596 108.239 25.3596ZM46.2294 21.3296C45.8694 21.3296 45.5693 21.6196 45.5693 21.9796C45.5693 22.3396 45.8694 22.6296 46.2294 22.6296H108.239C108.599 22.6296 108.899 22.3396 108.899 21.9796C108.899 21.6196 108.609 21.3296 108.239 21.3296H46.2294Z" fill="#27348B"/>
<path d="M39.1097 22.1897L36.3698 22.1298C36.4598 18.4898 35.1097 15.0298 32.5797 12.3998C30.0497 9.76978 26.6397 8.26981 22.9697 8.17981L23.0298 5.44971C32.0998 5.66971 39.3197 13.1797 39.1097 22.1897Z" fill="#27348B"/>
<path d="M135.42 38.5198C126.34 38.3098 119.129 30.7998 119.339 21.7798L122.079 21.8397C121.899 29.3497 127.919 35.6098 135.479 35.7898L135.42 38.5198Z" fill="#27348B"/>
<path d="M72.4794 21.7897C72.4794 25.1897 69.6994 27.9496 66.2794 27.9496C62.8494 27.9496 60.0693 25.1997 60.0693 21.7897V10.2596C60.0693 6.85964 62.8494 4.09961 66.2794 4.09961C69.6994 4.09961 72.4794 6.85964 72.4794 10.2596V21.7897Z" fill="white"/>
<path d="M66.2793 29.3098C62.0993 29.3098 58.6992 25.9398 58.6992 21.7898V10.2598C58.6992 6.10977 62.0993 2.73975 66.2793 2.73975C70.4593 2.73975 73.8492 6.10977 73.8492 10.2598V21.7898C73.8492 25.9398 70.4493 29.3098 66.2793 29.3098ZM66.2793 5.46973C63.6193 5.46973 61.4492 7.61977 61.4492 10.2598V21.7898C61.4492 24.4298 63.6193 26.5897 66.2793 26.5897C68.9393 26.5897 71.1093 24.4398 71.1093 21.7898V10.2598C71.0993 7.61977 68.9393 5.46973 66.2793 5.46973Z" fill="#27348B"/>
<path d="M85.7095 20.9199C85.7095 24.3199 82.9295 27.0798 79.5095 27.0798C76.0795 27.0798 73.3096 24.3199 73.3096 20.9199V7.57983C73.3096 4.17983 76.0895 1.41992 79.5095 1.41992C82.9295 1.41992 85.7095 4.17983 85.7095 7.57983V20.9199Z" fill="white"/>
<path d="M79.4999 28.4498C75.3199 28.4498 71.9199 25.0799 71.9199 20.9299V7.58984C71.9199 3.43984 75.3199 0.0698242 79.4999 0.0698242C83.6799 0.0698242 87.0798 3.43984 87.0798 7.58984V20.9299C87.0798 25.0699 83.6799 28.4498 79.4999 28.4498ZM79.4999 2.78992C76.8399 2.78992 74.6699 4.93984 74.6699 7.58984V20.9299C74.6699 23.5699 76.8399 25.7299 79.4999 25.7299C82.1599 25.7299 84.3298 23.5799 84.3298 20.9299V7.58984C84.3298 4.93984 82.1699 2.78992 79.4999 2.78992Z" fill="#27348B"/>
<path d="M98.11 18.7198C98.11 22.1198 95.33 24.8799 91.91 24.8799C88.48 24.8799 85.71 22.1198 85.71 18.7198V10.2699C85.71 6.8699 88.48 4.10986 91.91 4.10986C95.34 4.10986 98.11 6.8699 98.11 10.2699V18.7198Z" fill="white"/>
<path d="M91.9099 26.24C87.7299 26.24 84.3398 22.87 84.3398 18.72V10.27C84.3398 6.12002 87.7399 2.75 91.9099 2.75C96.0899 2.75 99.4799 6.12002 99.4799 10.27V18.72C99.4799 22.86 96.0799 26.24 91.9099 26.24ZM91.9099 5.46997C89.2499 5.46997 87.0798 7.62001 87.0798 10.26V18.71C87.0798 21.35 89.2499 23.5 91.9099 23.5C94.5699 23.5 96.7399 21.35 96.7399 18.71V10.26C96.7299 7.62001 94.5699 5.46997 91.9099 5.46997Z" fill="#27348B"/>
<path d="M110.51 18.7295C110.51 22.1295 107.73 24.8895 104.31 24.8895C100.88 24.8895 98.0996 22.1295 98.0996 18.7295V12.9695C98.0996 9.56948 100.88 6.80957 104.31 6.80957C107.73 6.80957 110.51 9.55948 110.51 12.9695V18.7295Z" fill="white"/>
<path d="M104.31 26.2498C100.13 26.2498 96.7295 22.8797 96.7295 18.7297V12.9697C96.7295 8.81973 100.13 5.44971 104.31 5.44971C108.49 5.44971 111.88 8.81973 111.88 12.9697V18.7297C111.88 22.8797 108.49 26.2498 104.31 26.2498ZM104.31 8.17981C101.65 8.17981 99.4795 10.3297 99.4795 12.9697V18.7297C99.4795 21.3697 101.65 23.5298 104.31 23.5298C106.97 23.5298 109.14 21.3797 109.14 18.7297V12.9697C109.14 10.3297 106.97 8.17981 104.31 8.17981Z" fill="#27348B"/>
<path d="M72.7497 50.7397C75.0997 32.1997 59.5198 27.9497 59.5198 27.9497H77.5398C85.7098 26.1997 85.7097 16.0298 85.7097 16.0298H57.4098L47.8898 23.9998C47.8898 23.9998 42.7498 29.5598 44.3998 37.1498C44.3998 37.1498 48.2797 49.6498 60.0697 61.2698" fill="white"/>
<path d="M59.0993 62.2399C47.1993 50.5099 43.2493 38.0699 43.0893 37.5499C43.0793 37.5099 43.0694 37.4798 43.0594 37.4398C41.2694 29.2598 46.6494 23.3298 46.8794 23.0798C46.9194 23.0398 46.9594 22.9998 47.0094 22.9598L56.5294 14.9899C56.7794 14.7799 57.0894 14.6699 57.4194 14.6699H85.7193C86.4793 14.6699 87.0893 15.2799 87.0893 16.0299C87.0893 19.9299 85.1593 27.7199 77.8393 29.2799C77.7493 29.2999 77.6494 29.3099 77.5494 29.3099H65.2894C69.9294 32.4699 75.6493 38.8799 74.1193 50.8999L71.3994 50.5599C73.5694 33.4599 59.7594 29.4199 59.1694 29.2599C58.5094 29.0799 58.0894 28.4399 58.1794 27.7599C58.2694 27.0899 58.8494 26.5798 59.5394 26.5798H77.3994C80.1994 25.9298 82.2193 24.0299 83.3793 20.9299C83.8793 19.5999 84.1193 18.3099 84.2393 17.3899H57.9194L48.8693 24.9698C48.3793 25.5398 44.3893 30.4299 45.7493 36.7899C46.0293 37.6599 50.0394 49.4399 61.0594 60.2999L59.0993 62.2399Z" fill="#27348B"/>
<path d="M100.169 82.0796C100.169 83.8896 98.6891 85.3496 96.8691 85.3496C95.0491 85.3496 93.5791 83.8896 93.5791 82.0796C93.5791 80.2796 95.0491 78.8096 96.8691 78.8096C98.6891 78.8096 100.169 80.2796 100.169 82.0796Z" fill="white"/>
<path d="M96.8693 86.7197C94.2993 86.7197 92.1992 84.6398 92.1992 82.0798C92.1992 79.5198 94.2893 77.4497 96.8693 77.4497C99.4493 77.4497 101.539 79.5298 101.539 82.0798C101.539 84.6398 99.4493 86.7197 96.8693 86.7197ZM96.8693 80.1698C95.8093 80.1698 94.9492 81.0298 94.9492 82.0798C94.9492 83.1298 95.8093 83.9897 96.8693 83.9897C97.9293 83.9897 98.7993 83.1298 98.7993 82.0798C98.7993 81.0298 97.9293 80.1698 96.8693 80.1698Z" fill="#27348B"/>
</svg>