<svg width="66" height="66" viewBox="0 0 66 66" fill="none" xmlns="http://www.w3.org/2000/svg">
<path d="M29.2399 0.280273C31.6899 0.280273 34.1399 0.280273 36.5899 0.280273C36.6399 0.320273 36.6799 0.380137 36.7299 0.390137C38.4799 0.880137 39.4699 2.0403 39.7699 3.8103C39.9799 5.0503 40.1999 6.30028 40.3999 7.54028C40.4599 7.91028 40.5899 8.15029 40.9999 8.30029C42.2199 8.75029 43.4099 9.30025 44.6199 9.76025C44.8599 9.85025 45.2499 9.83019 45.4599 9.69019C46.5099 8.99019 47.53 8.24025 48.56 7.51025C50.52 6.12025 52.5099 6.28021 54.2099 7.96021C55.4199 9.1602 56.6298 10.3703 57.8298 11.5903C59.5198 13.3003 59.6799 15.2602 58.2899 17.2302C57.5599 18.2602 56.8298 19.3003 56.0798 20.3103C55.8598 20.6003 55.8399 20.8302 55.9899 21.1702C56.4899 22.3002 56.9799 23.4404 57.4099 24.6104C57.5699 25.0404 57.8199 25.1902 58.2199 25.2502C59.3399 25.4202 60.4599 25.6103 61.5899 25.7903C62.7199 25.9703 63.7999 26.3002 64.5099 27.2502C64.9199 27.7902 65.1599 28.4503 65.4799 29.0603C65.4799 31.5103 65.4799 33.9602 65.4799 36.4102C65.4299 36.5002 65.3699 36.5802 65.3399 36.6702C64.8299 38.2602 63.7599 39.2303 62.1299 39.5603C60.8299 39.8203 59.5198 40.0102 58.1998 40.2102C57.7898 40.2702 57.5399 40.4103 57.3799 40.8403C56.9399 42.0003 56.4599 43.1403 55.9599 44.2803C55.8199 44.6103 55.8099 44.8401 56.0299 45.1401C56.8199 46.2101 57.5899 47.2901 58.3499 48.3801C59.5899 50.1801 59.4499 52.1602 57.9299 53.7402C56.6599 55.0602 55.3599 56.3601 54.0299 57.6401C52.4199 59.1801 50.4399 59.3103 48.6199 58.0403C47.5699 57.3003 46.5099 56.5603 45.4799 55.7903C45.1399 55.5403 44.8799 55.5402 44.5099 55.7002C43.4199 56.1902 42.3098 56.6603 41.1898 57.0703C40.7398 57.2303 40.5699 57.4802 40.4999 57.9202C40.2999 59.2102 40.0999 60.5003 39.8599 61.7803C39.5499 63.4403 38.5799 64.5303 36.9599 65.0503C36.8699 65.0803 36.7899 65.1402 36.6999 65.1902C34.2499 65.1902 31.7999 65.1902 29.3499 65.1902C29.2599 65.1402 29.1799 65.0803 29.0899 65.0503C27.4999 64.5503 26.5199 63.4703 26.1999 61.8503C25.9499 60.5703 25.7499 59.2802 25.5599 57.9902C25.4899 57.5102 25.3099 57.2303 24.8099 57.0603C23.7199 56.6803 22.6599 56.2102 21.5999 55.7402C21.2599 55.5902 21.0399 55.6203 20.7499 55.8303C19.7099 56.5903 18.6599 57.3403 17.6099 58.0803C15.6699 59.4503 13.6899 59.3001 12.0099 57.6401C10.7799 56.4301 9.54992 55.2002 8.33992 53.9702C6.67992 52.2802 6.51991 50.3004 7.88991 48.3704C8.62991 47.3204 9.3999 46.2902 10.1299 45.2202C10.2499 45.0402 10.2799 44.7102 10.1999 44.5002C9.71991 43.2902 9.21989 42.0901 8.67989 40.9001C8.58989 40.7001 8.32989 40.5002 8.11989 40.4502C6.95989 40.2202 5.80991 39.9903 4.63991 39.8403C1.74991 39.4903 0.459911 37.4602 0.579911 35.1902C0.679911 33.4602 0.589869 31.7302 0.599869 30.0002C0.609869 28.1502 1.78992 26.5802 3.58992 26.1702C4.99992 25.8402 6.4399 25.6402 7.8799 25.4102C8.2799 25.3502 8.4799 25.1903 8.6299 24.7903C9.0599 23.6303 9.52987 22.4803 10.0399 21.3403C10.1999 20.9703 10.1599 20.7402 9.9399 20.4402C9.1599 19.3902 8.40987 18.3202 7.65987 17.2502C6.34987 15.3702 6.5299 13.3702 8.1299 11.7402C9.3599 10.4902 10.5999 9.26027 11.8499 8.03027C13.5399 6.37027 15.5299 6.22034 17.4499 7.60034C18.4799 8.34034 19.5199 9.06032 20.5299 9.83032C20.8299 10.0603 21.0599 10.0501 21.3799 9.90015C22.4899 9.40015 23.6099 8.90022 24.7499 8.48022C25.1999 8.31022 25.3699 8.08015 25.4399 7.65015C25.6399 6.36015 25.8599 5.07028 26.0899 3.79028C26.3399 2.31028 27.1499 1.25036 28.5199 0.620361C28.7499 0.480361 28.9999 0.380273 29.2399 0.280273ZM14.8499 10.3103C14.6899 10.4403 14.5299 10.5302 14.3999 10.6602C13.1999 11.8502 12.0099 13.0502 10.8099 14.2302C10.4699 14.5602 10.4699 14.8302 10.7399 15.2002C11.7499 16.5802 12.7099 17.9904 13.7199 19.3704C14.3299 20.1904 14.3299 20.9701 13.8999 21.9001C13.1199 23.6001 12.4099 25.3303 11.7799 27.0903C11.4199 28.0903 10.8399 28.6203 9.80989 28.7803C8.20989 29.0203 6.6099 29.3103 5.0099 29.5603C4.4599 29.6403 4.22989 29.8702 4.24989 30.4702C4.28989 32.0502 4.29989 33.6402 4.24989 35.2202C4.22989 35.8602 4.5099 36.0501 5.0699 36.1401C6.7299 36.4001 8.38988 36.7102 10.0499 36.9702C11.0299 37.1202 11.5899 37.6904 11.8399 38.6104C12.3299 40.4304 13.0599 42.1503 14.0099 43.7803C14.5499 44.7003 14.4699 45.5204 13.8499 46.3604C12.8699 47.6804 11.9499 49.0504 10.9699 50.3704C10.6699 50.7804 10.6499 51.0802 11.0399 51.4502C12.2199 52.6002 13.3899 53.7602 14.5299 54.9402C14.8799 55.3002 15.1499 55.3203 15.5599 55.0203C16.9199 54.0203 18.3199 53.0703 19.6799 52.0703C20.5199 51.4503 21.3199 51.4501 22.2699 51.8801C23.9099 52.6301 25.5799 53.3402 27.2799 53.9402C28.3099 54.3002 28.8299 54.9202 28.9799 55.9702C29.2199 57.6002 29.5199 59.2103 29.7699 60.8303C29.8399 61.3103 30.0499 61.5002 30.5599 61.4902C32.1899 61.4602 33.8099 61.4502 35.4399 61.4902C35.9999 61.5002 36.2299 61.3103 36.3099 60.7703C36.5599 59.1503 36.8499 57.5302 37.0999 55.9102C37.2599 54.8902 37.7899 54.3002 38.7899 53.9402C40.5499 53.3102 42.2799 52.5803 43.9699 51.7903C44.9199 51.3403 45.71 51.3602 46.56 51.9802C47.9 52.9702 49.2799 53.9101 50.6199 54.9001C51.0299 55.2001 51.2999 55.1703 51.6499 54.8103C52.7999 53.6303 53.9599 52.4603 55.1399 51.3203C55.5299 50.9403 55.5199 50.6502 55.2099 50.2402C54.2199 48.9002 53.2799 47.5202 52.2999 46.1702C51.6999 45.3502 51.6899 44.5701 52.1299 43.6401C52.9199 41.9501 53.6499 40.2202 54.2799 38.4602C54.6499 37.4302 55.2499 36.9002 56.2999 36.7502C57.8999 36.5202 59.4999 36.2202 61.0999 35.9802C61.6199 35.9002 61.8499 35.7004 61.8399 35.1204C61.7999 33.4904 61.7999 31.8702 61.8399 30.2402C61.8499 29.6802 61.6199 29.5002 61.1399 29.4202C59.5199 29.1602 57.8999 28.8801 56.2799 28.6301C55.2599 28.4701 54.67 27.9502 54.31 26.9502C53.69 25.2102 52.9699 23.5003 52.1799 21.8303C51.7099 20.8303 51.7199 20.0201 52.3799 19.1301C53.3699 17.8101 54.2899 16.4504 55.2599 15.1204C55.5499 14.7204 55.5399 14.4403 55.1799 14.0903C53.9999 12.9403 52.8298 11.7803 51.6898 10.5903C51.3098 10.2003 51.0299 10.2103 50.6099 10.5203C49.2499 11.5303 47.8699 12.4902 46.5099 13.4902C45.7499 14.0502 44.9599 14.1202 44.1499 13.6602C42.3999 12.6702 40.5599 11.9001 38.6099 11.3901C37.7599 11.1701 37.2299 10.6302 37.0899 9.73022C36.8099 8.03022 36.4999 6.33036 36.2299 4.62036C36.1499 4.11036 35.9499 3.90016 35.4099 3.91016C33.7599 3.94016 32.1199 3.93016 30.4699 3.91016C30.0099 3.90016 29.7899 4.03026 29.7099 4.52026C29.4499 6.16026 29.1099 7.79019 28.8799 9.44019C28.7299 10.5302 28.2099 11.2202 27.1399 11.5002C25.3399 11.9802 23.6299 12.7001 22.0299 13.6501C21.1199 14.1901 20.2899 14.1202 19.4499 13.4902C18.1299 12.5102 16.7699 11.5704 15.4299 10.6204C15.2499 10.5404 15.0699 10.4403 14.8499 10.3103Z" fill="#B7B7B6"/>
<path d="M32.46 18.7302C39.53 18.3902 46.12 23.5603 46.96 31.1203C47.87 39.2003 42.02 45.8601 34.59 46.6401C26.48 47.4901 19.92 41.6502 19.13 34.2602C18.23 25.9302 24.59 19.0102 32.46 18.7302ZM33.06 22.4101C27.37 22.3901 22.78 26.9501 22.74 32.6801C22.7 38.3901 27.3 43.0202 33.03 43.0302C38.73 43.0402 43.29 38.5002 43.35 32.7702C43.42 27.0802 38.79 22.4301 33.06 22.4101Z" fill="#B7B7B6"/>
</svg>
