<svg width="80" height="68" viewBox="0 0 80 68" fill="none" xmlns="http://www.w3.org/2000/svg">
<path d="M19.9805 42.5503L14.6205 5.75024H3.47046C1.98046 5.75024 0.730469 4.50021 0.730469 2.96021C0.730469 1.45021 1.98046 0.200195 3.47046 0.200195H15.2605C18.8405 0.200195 19.8404 1.5703 20.2104 4.3103L20.8204 8.40015H75.8005C77.8505 8.40015 79.0905 9.59032 79.0905 11.3303C79.0905 11.6603 79.0104 12.1902 78.9504 12.6602L76.3304 30.2402C75.5704 35.2302 72.9904 38.3103 67.9404 38.3103H25.1805L25.7104 41.8503C26.0004 43.8003 27.1205 45.0403 28.9705 45.0403H67.8204C69.2504 45.0403 70.5005 46.1803 70.5005 47.7603C70.5005 49.3403 69.2504 50.4802 67.8204 50.4802H28.3005C23.3205 50.4902 20.7005 47.4403 19.9805 42.5503ZM21.6005 13.8103L24.3805 32.8704L67.4105 32.8303C69.2705 32.8303 70.3205 31.6202 70.6005 29.6602L72.8905 13.8203H21.6005V13.8103ZM25.3705 61.5002C25.3705 58.3702 27.8705 55.8704 31.0205 55.8704C34.1305 55.8704 36.6505 58.3702 36.6505 61.5002C36.6505 64.6502 34.1305 67.1501 31.0205 67.1501C27.8605 67.1501 25.3705 64.6502 25.3705 61.5002ZM56.9305 61.5002C56.9305 58.3702 59.4704 55.8704 62.5804 55.8704C65.7304 55.8704 68.2305 58.3702 68.2305 61.5002C68.2305 64.6502 65.7304 67.1501 62.5804 67.1501C59.4704 67.1501 56.9305 64.6502 56.9305 61.5002Z" fill="#B7B7B6"/>
</svg>