<svg width="153" height="114" viewBox="0 0 153 114" fill="none" xmlns="http://www.w3.org/2000/svg">
<path d="M7.02993 26.1196C5.74993 26.1196 4.4699 26.0996 3.1899 26.1296C1.6799 26.1696 0.589885 27.1096 0.549885 28.3696C0.509885 29.5796 1.60991 30.6796 3.07991 30.7096C5.68991 30.7596 8.29988 30.7596 10.9199 30.7096C12.4099 30.6796 13.5099 29.6196 13.4899 28.3996C13.4699 27.1496 12.3699 26.1696 10.8799 26.1296C9.5999 26.0896 8.30993 26.1196 7.02993 26.1196ZM7.50991 42.8796C9.89991 41.5696 12.0599 40.5096 14.0699 39.2196C14.9099 38.6796 14.9699 37.4396 14.2399 36.7296C13.6599 36.1596 12.4999 35.5296 11.8999 35.7396C9.95992 36.4196 8.07987 37.3596 6.34987 38.4696C5.77987 38.8396 5.3799 40.1296 5.5699 40.8196C5.7799 41.5796 6.75991 42.1296 7.50991 42.8796ZM12.6699 21.4696C13.2499 20.8596 14.1099 20.2696 14.5099 19.4596C15.0099 18.4396 14.3499 17.5296 13.4199 17.0196C11.8699 16.1596 10.2699 15.3896 8.65987 14.6396C7.36987 14.0396 6.13989 14.4895 5.55989 15.6895C5.01989 16.8195 5.39988 17.9596 6.66988 18.6496C8.00988 19.3796 9.38991 20.0296 10.7599 20.6996C11.2499 20.9396 11.7599 21.1096 12.6699 21.4696Z" fill="#2C4356"/>
<path d="M152.59 31.0898C152.33 32.4698 152.13 33.8598 151.79 35.2198C149.17 45.7398 141.93 51.8597 132.09 55.4397C130.86 55.8897 130.22 56.4098 129.89 57.7498C126.22 72.6598 128.3 86.7097 136.12 99.9297C137.22 101.79 138.41 103.6 137.8 105.96C137.27 108 136.11 109.46 134.24 110.41C128.96 113.09 123.39 113.92 117.57 112.85C115.49 112.47 113.42 112 111.4 111.38C107.36 110.14 104.45 107.52 103.25 103.49C101.8 98.6298 100.66 93.6698 99.4701 88.7298C99.2401 87.7598 98.9802 87.1798 97.8802 87.3498C97.6402 87.3898 97.3902 87.3598 97.1402 87.3498C95.5502 87.2798 94.3902 86.2798 94.4202 85.0098C94.4502 83.7098 95.5702 82.7998 97.2102 82.7398C97.6002 82.7298 97.9902 82.6998 98.5902 82.6698C98.4702 81.1198 98.3602 79.6198 98.2302 77.8998C97.4202 77.8998 96.6502 77.9298 95.8802 77.8898C94.3602 77.8198 93.2602 76.8698 93.2302 75.6298C93.1902 74.3498 94.3602 73.3298 95.9402 73.2898C96.6302 73.2698 97.3202 73.2898 98.1002 73.2898C98.3401 70.8598 98.5102 68.4798 98.8402 66.1298C99.2202 63.3698 99.7002 60.6298 100.24 57.8998C100.47 56.7598 100.3 56.3098 99.0202 56.0398C92.0002 54.5698 85.4002 51.8299 78.7702 49.1799C73.1902 46.9499 67.5402 44.9498 61.5702 43.9598C50.3102 42.0998 39.4602 43.4798 28.9302 47.7098C28.0202 48.0798 27.1301 48.4998 26.2201 48.8898C22.7701 50.4098 19.5702 48.4098 19.5402 44.6698C19.5002 39.9998 19.5302 35.3298 19.5302 30.6598C19.5302 25.0598 19.6402 19.4498 19.4902 13.8498C19.4002 10.2798 22.5402 7.40975 26.5202 9.31975C35.8802 13.8097 45.8402 15.4298 56.1702 14.8398C64.2002 14.3798 71.7002 11.8098 79.0802 8.82975C86.1102 5.98975 93.1402 3.15978 100.64 1.72978C111.3 -0.290221 121.93 -0.750246 132.37 2.82975C140.72 5.68975 147.25 10.7499 150.52 19.1799C151.41 21.4799 151.71 23.9998 152.29 26.4098C152.38 26.7798 152.49 27.1498 152.59 27.5198C152.59 28.7298 152.59 29.9098 152.59 31.0898ZM50.4802 38.6598C51.1202 38.6598 51.6502 38.6298 52.1802 38.6698C55.6202 38.9298 59.0902 39.0298 62.5002 39.5098C68.5502 40.3498 74.2402 42.4798 79.8702 44.7398C87.3702 47.7398 94.8602 50.7698 102.87 52.2398C105.54 52.7298 105.89 53.4898 105.38 56.1098C104.51 60.5298 103.43 64.9398 103.06 69.4098C102.14 80.4998 103.85 91.2999 107.46 101.82C108.39 104.53 110.22 106.35 112.97 107.12C115.05 107.71 117.17 108.3 119.31 108.52C123.8 109 128.18 108.51 132.25 106.3C133.35 105.7 133.63 104.84 133.09 103.85C131.7 101.33 130.74 98.1197 126.67 99.1897C126.62 99.1997 126.57 99.1897 126.52 99.1897C125.14 99.0297 124.08 98.0099 124.09 96.8399C124.1 95.6499 125.16 94.6398 126.54 94.5198C127.01 94.4798 127.49 94.4697 128.14 94.4397C123.26 82.3497 122.25 70.0798 125.28 57.3398C123.84 57.4598 122.53 57.5998 121.23 57.6799C119.58 57.7799 118.57 57.0698 118.43 55.7398C118.28 54.3298 119.18 53.3598 120.82 53.1698C125.45 52.6298 129.96 51.6798 134.2 49.6598C144.64 44.6998 149.87 34.3897 147.23 23.6997C145.3 15.8897 140.1 10.8097 132.8 7.81974C123.19 3.88974 113.22 4.20979 103.2 5.86979C95.9902 7.05979 89.2402 9.65977 82.5002 12.3498C73.6802 15.8598 64.7202 18.8698 55.1302 19.4098C53.5702 19.4998 52.0102 19.5899 50.4902 19.6799C50.4802 26.0399 50.4802 32.2598 50.4802 38.6598ZM45.5802 30.7998C43.6802 30.6298 41.0802 31.1497 41.0602 28.4397C41.0502 25.6497 43.7202 26.1998 45.6802 26.0398C45.6802 24.0898 45.6102 22.2798 45.7102 20.4698C45.7702 19.3198 45.2302 19.0398 44.2502 18.9598C39.5102 18.5698 34.9402 17.4298 30.4902 15.8498C28.4202 15.1198 26.4002 14.2498 24.3202 13.4198C24.3202 23.8598 24.3202 34.2098 24.3202 44.7898C31.1602 41.6198 38.1702 39.6598 45.5902 38.9598C45.5802 36.2098 45.5802 33.5398 45.5802 30.7998Z" fill="#2C4356"/>
<path d="M7.02976 26.1197C8.30976 26.1197 9.58973 26.0897 10.8697 26.1297C12.3597 26.1697 13.4597 27.1497 13.4797 28.3997C13.4997 29.6197 12.3997 30.6796 10.9097 30.7096C8.29971 30.7596 5.68974 30.7596 3.06974 30.7096C1.59974 30.6796 0.48971 29.5797 0.53971 28.3697C0.57971 27.1197 1.67972 26.1697 3.17972 26.1297C4.46972 26.0997 5.74976 26.1197 7.02976 26.1197Z" fill="#2C4356"/>
<path d="M7.50954 42.8796C6.75954 42.1296 5.77953 41.5895 5.55953 40.8195C5.36953 40.1295 5.76956 38.8396 6.33956 38.4696C8.06956 37.3596 9.94955 36.4196 11.8895 35.7396C12.4995 35.5296 13.6495 36.1596 14.2295 36.7296C14.9595 37.4396 14.8995 38.6796 14.0595 39.2196C12.0595 40.5096 9.89954 41.5696 7.50954 42.8796Z" fill="#2C4356"/>
<path d="M12.6698 21.4696C11.7598 21.1096 11.2498 20.9296 10.7598 20.6996C9.38979 20.0296 8.00976 19.3796 6.66976 18.6496C5.39976 17.9596 5.01977 16.8295 5.55977 15.6895C6.13977 14.4895 7.35975 14.0396 8.65975 14.6396C10.2697 15.3896 11.8698 16.1596 13.4198 17.0196C14.3398 17.5296 15.0098 18.4396 14.5098 19.4596C14.1098 20.2696 13.2498 20.8596 12.6698 21.4696Z" fill="#2C4356"/>
<path d="M50.4795 38.6599C50.4795 32.2599 50.4795 26.0299 50.4795 19.6699C51.9995 19.5799 53.5595 19.4899 55.1195 19.3999C64.7195 18.8599 73.6795 15.8598 82.4895 12.3398C89.2295 9.65983 95.9795 7.05985 103.19 5.85985C113.21 4.19985 123.179 3.87992 132.789 7.80992C140.089 10.7999 145.289 15.8698 147.219 23.6898C149.859 34.3798 144.63 44.6899 134.19 49.6499C129.95 51.6599 125.44 52.6199 120.81 53.1599C119.17 53.3499 118.269 54.3198 118.419 55.7298C118.559 57.0498 119.569 57.7699 121.219 57.6699C122.529 57.5899 123.83 57.4498 125.27 57.3298C122.24 70.0698 123.25 82.3399 128.13 94.4299C127.49 94.4599 127.01 94.4699 126.53 94.5099C125.15 94.6299 124.09 95.6399 124.08 96.8299C124.07 97.9999 125.12 99.0198 126.51 99.1798C126.56 99.1898 126.609 99.1998 126.659 99.1798C130.729 98.0998 131.68 101.32 133.08 103.84C133.62 104.82 133.34 105.69 132.24 106.29C128.18 108.51 123.799 108.99 119.299 108.51C117.16 108.28 115.04 107.69 112.96 107.11C110.21 106.33 108.38 104.52 107.45 101.81C103.84 91.2899 102.13 80.4899 103.049 69.3999C103.419 64.9299 104.5 60.5198 105.37 56.0998C105.88 53.4798 105.529 52.7198 102.859 52.2298C94.8495 50.7598 87.3595 47.7298 79.8595 44.7298C74.2295 42.4798 68.5395 40.3499 62.4895 39.4999C59.0795 39.0199 55.6095 38.9199 52.1695 38.6599C51.6495 38.6299 51.1195 38.6599 50.4795 38.6599ZM115.12 15.4398C110.61 15.4698 106.75 16.0299 103.13 17.6199C101.47 18.3499 99.8295 19.2299 98.3795 20.3099C91.4395 25.4899 91.4895 33.7598 98.4195 38.9398C106.729 45.1598 121.62 45.3898 130.09 39.3598C131.36 38.4498 132.569 37.3699 133.539 36.1499C137.619 30.9999 136.409 24.4398 130.659 20.1998C125.869 16.6998 120.37 15.5498 115.12 15.4398ZM116.919 80.3799C116.949 79.0999 115.91 78.0199 114.609 77.9899C113.309 77.9599 112.23 78.9899 112.2 80.2699C112.17 81.5399 113.23 82.6399 114.51 82.6699C115.78 82.7099 116.889 81.6599 116.919 80.3799Z" fill="#56BEC0"/>
<path d="M45.5796 30.7997C45.5796 33.5397 45.5796 36.2096 45.5796 38.9696C38.1596 39.6696 31.1496 41.6297 24.3096 44.7997C24.3096 34.2197 24.3096 23.8697 24.3096 13.4297C26.3896 14.2497 28.4096 15.1196 30.4796 15.8596C34.9396 17.4396 39.5096 18.5796 44.2396 18.9696C45.2096 19.0496 45.7596 19.3296 45.6996 20.4796C45.5996 22.2896 45.6696 24.0997 45.6696 26.0497C43.7096 26.2097 41.0396 25.6596 41.0496 28.4496C41.0796 31.1496 43.6796 30.6197 45.5796 30.7997Z" fill="#E1ECF5"/>
<path d="M115.12 15.4395C120.37 15.5495 125.87 16.6895 130.64 20.1995C136.4 24.4295 137.6 30.9895 133.52 36.1495C132.56 37.3695 131.35 38.4595 130.07 39.3595C121.6 45.3895 106.71 45.1595 98.4 38.9395C91.47 33.7495 91.42 25.4896 98.36 20.3096C99.81 19.2296 101.45 18.3495 103.11 17.6195C106.76 16.0395 110.62 15.4695 115.12 15.4395ZM107.46 38.1995C109.02 38.4595 110.54 38.7195 112.1 38.9795C112.1 32.5995 112.1 26.4596 112.1 20.1796C110.47 20.4696 108.98 20.7395 107.46 21.0195C107.46 26.7895 107.46 32.4095 107.46 38.1995ZM121.67 21.0195C120.13 20.7395 118.6 20.4695 116.99 20.1895C116.99 26.5295 116.99 32.6795 116.99 39.0095C118.64 38.7095 120.16 38.4396 121.67 38.1696C121.67 32.3596 121.67 26.7795 121.67 21.0195ZM102.62 36.1696C102.62 31.6796 102.62 27.4895 102.62 23.0095C100.12 24.6895 98.02 26.3895 97.92 29.4095C97.81 32.6095 99.98 34.3996 102.62 36.1696ZM126.45 35.9695C129.47 34.6195 131.4 31.8095 131.22 29.1595C131.07 26.8395 128.77 24.0195 126.45 23.3195C126.45 27.4995 126.45 31.6695 126.45 35.9695Z" fill="#2C4356"/>
<path d="M116.92 80.3799C116.89 81.6499 115.78 82.7 114.51 82.67C113.23 82.64 112.17 81.5399 112.2 80.2699C112.23 78.9899 113.32 77.9599 114.61 77.9899C115.91 78.0299 116.95 79.0999 116.92 80.3799Z" fill="#2C4356"/>
<path d="M107.46 38.1996C107.46 32.4196 107.46 26.7897 107.46 21.0197C108.98 20.7497 110.47 20.4797 112.1 20.1797C112.1 26.4597 112.1 32.5996 112.1 38.9796C110.54 38.7096 109.02 38.4596 107.46 38.1996Z" fill="white"/>
<path d="M121.67 21.0195C121.67 26.7795 121.67 32.3596 121.67 38.1696C120.16 38.4396 118.64 38.7195 116.99 39.0095C116.99 32.6795 116.99 26.5195 116.99 20.1895C118.61 20.4695 120.13 20.7395 121.67 21.0195Z" fill="white"/>
<path d="M102.62 36.1698C99.98 34.4098 97.81 32.6098 97.92 29.4098C98.02 26.3898 100.12 24.6898 102.62 23.0098C102.62 27.4898 102.62 31.6698 102.62 36.1698Z" fill="white"/>
<path d="M126.45 35.9696C126.45 31.6696 126.45 27.5096 126.45 23.3296C128.78 24.0196 131.07 26.8497 131.22 29.1697C131.4 31.8097 129.47 34.6196 126.45 35.9696Z" fill="white"/>
</svg>